{
	"asset":{
		"generator":"Khronos glTF Blender I/O v4.5.48",
		"version":"2.0"
	},
	"scene":0,
	"scenes":[
		{
			"name":"Scene",
			"nodes":[
				0
			]
		}
	],
	"nodes":[
		{
			"mesh":0,
			"name":"Cylinder"
		}
	],
	"materials":[
		{
			"name":"material_0",
			"pbrMetallicRoughness":{
				"baseColorFactor":[
					1,
					0.7764710187911987,
					0.36470600962638855,
					1
				],
				"metallicFactor":0,
				"roughnessFactor":0.5
			}
		}
	],
	"meshes":[
		{
			"name":"Object_0",
			"primitives":[
				{
					"attributes":{
						"POSITION":0,
						"NORMAL":1,
						"TEXCOORD_0":2
					},
					"indices":3,
					"material":0
				}
			]
		}
	],
	"accessors":[
		{
			"bufferView":0,
			"componentType":5126,
			"count":779,
			"max":[
				0.5,
				0.5,
				0.4865211844444275
			],
			"min":[
				-0.5,
				-0.5,
				-0.5134788155555725
			],
			"type":"VEC3"
		},
		{
			"bufferView":1,
			"componentType":5126,
			"count":779,
			"type":"VEC3"
		},
		{
			"bufferView":2,
			"componentType":5126,
			"count":779,
			"type":"VEC2"
		},
		{
			"bufferView":3,
			"componentType":5123,
			"count":4104,
			"type":"SCALAR"
		}
	],
	"bufferViews":[
		{
			"buffer":0,
			"byteLength":9348,
			"byteOffset":0,
			"target":34962
		},
		{
			"buffer":0,
			"byteLength":9348,
			"byteOffset":9348,
			"target":34962
		},
		{
			"buffer":0,
			"byteLength":6232,
			"byteOffset":18696,
			"target":34962
		},
		{
			"buffer":0,
			"byteLength":8208,
			"byteOffset":24928,
			"target":34963
		}
	],
	"buffers":[
		{
			"byteLength":33136,
			"uri":"cylinder.bin"
		}
	]
}
